<?xml version="1.0" encoding="iso-8859-1"?>
<!-- Generator: Adobe Illustrator 24.1.2, SVG Export Plug-In . SVG Version: 6.00 Build 0)  -->
<svg version="1.1" xmlns="http://www.w3.org/2000/svg" xmlns:xlink="http://www.w3.org/1999/xlink" x="0px" y="0px"
	 viewBox="0 0 48 48" style="enable-background:new 0 0 48 48;" xml:space="preserve">
<g id="Layer_10" style="display:none;">
	<g style="opacity:0.05;">
		<g style="display:inline;">
			<circle style="fill:#FFFFFF;" cx="-19" cy="23" r="21.5"/>
			<path d="M-19,2C-7.421,2,2,11.421,2,23s-9.421,21-21,21s-21-9.421-21-21S-30.579,2-19,2 M-19,1c-12.15,0-22,9.85-22,22
				s9.85,22,22,22S3,35.15,3,23S-6.85,1-19,1L-19,1z"/>
		</g>
		<g style="display:inline;">
			<rect x="-38.5" y="3.5" style="fill:#FFFFFF;" width="39" height="39"/>
			<path d="M0,4v38h-38V4H0 M1,3h-40v40H1V3L1,3z"/>
		</g>
		<g style="display:inline;">
			<circle style="fill:#FFFFFF;" cx="35" cy="23" r="21.5"/>
			<path d="M35,2c11.579,0,21,9.421,21,21s-9.421,21-21,21s-21-9.421-21-21S23.421,2,35,2 M35,1c-12.15,0-22,9.85-22,22
				s9.85,22,22,22s22-9.85,22-22S47.15,1,35,1L35,1z"/>
		</g>
		<g style="display:inline;">
			<rect x="15.5" y="3.5" style="fill:#FFFFFF;" width="39" height="39"/>
			<path d="M54,4v38H16V4H54 M55,3H15v40h40V3L55,3z"/>
		</g>
	</g>
</g>
<g id="filled">
</g>
<g id="outlined">
</g>
<g id="handdr">
</g>
<g id="clrhanddr">
</g>
<g id="clip">
</g>
<g id="ios_x5F_out">
</g>
<g id="ios_x5F_filled">
	<path d="M40.341,28.686c-2.588,9.026-12.002,14.244-21.027,11.656S5.071,28.34,7.659,19.314S19.66,5.071,28.686,7.659
		S42.929,19.66,40.341,28.686z M16.042,15.476c-0.609,2.123,0.619,4.338,2.742,4.946s4.338-0.619,4.946-2.742
		s-0.619-4.338-2.742-4.946C18.866,12.126,16.651,13.353,16.042,15.476z M20.423,29.216c0.609-2.123-0.619-4.338-2.742-4.946
		s-4.338,0.619-4.946,2.742c-0.609,2.123,0.619,4.338,2.742,4.946C17.599,32.567,19.814,31.339,20.423,29.216z M23.965,25.999
		c1.105,0.019,2.015-0.86,2.034-1.964c0.019-1.105-0.86-2.015-1.964-2.034c-1.105-0.019-2.015,0.86-2.034,1.964
		C21.982,25.07,22.861,25.98,23.965,25.999z M31.958,32.524c0.609-2.123-0.619-4.338-2.742-4.946s-4.338,0.619-4.946,2.742
		s0.619,4.338,2.742,4.946S31.349,34.647,31.958,32.524z M35.265,20.989c0.609-2.123-0.619-4.338-2.742-4.946
		c-2.123-0.609-4.338,0.619-4.946,2.742s0.619,4.338,2.742,4.946S34.657,23.111,35.265,20.989z"/>
	<path d="M12.837,40.923l-4.804-1.109c-3.771-0.871-6.116-4.624-5.246-8.395l1.109-4.804C4.466,32.504,7.794,37.829,12.837,40.923z"
		/>
	<path d="M16.582,2.788l4.804,1.109c-5.889,0.57-11.214,3.897-14.308,8.941l1.109-4.804C9.057,4.263,12.811,1.917,16.582,2.788z"/>
	<path d="M45.212,16.582l-1.109,4.804c-0.57-5.889-3.897-11.214-8.941-14.308l4.804,1.109C43.737,9.057,46.083,12.811,45.212,16.582
		z"/>
	<path d="M40.923,35.163l-1.109,4.804c-0.871,3.771-4.624,6.116-8.395,5.246l-4.804-1.109
		C32.504,43.534,37.829,40.206,40.923,35.163z"/>
</g>
<g id="gradient">
</g>
<g id="fluent">
</g>
</svg>