<svg width="96" height="96" viewBox="0 0 96 96" fill="none" xmlns="http://www.w3.org/2000/svg">
<g clip-path="url(#clip0_4178_132588)">
<mask id="mask0_4178_132588" style="mask-type:luminance" maskUnits="userSpaceOnUse" x="0" y="0" width="96" height="96">
<path d="M96 48C96 21.4903 74.5097 0 48 0C21.4903 0 0 21.4903 0 48C0 74.5097 21.4903 96 48 96C74.5097 96 96 74.5097 96 48Z" fill="white"/>
</mask>
<g mask="url(#mask0_4178_132588)">
<path d="M96 0H0V96H96V0Z" fill="#C7D5EE"/>
<path d="M95.5082 90.0265C107.832 63.5979 96.3979 32.183 69.9694 19.8592C43.5409 7.53535 12.1259 18.9695 -0.19791 45.398C-12.5217 71.8265 -1.08761 103.241 25.3409 115.565C51.7694 127.889 83.1844 116.455 95.5082 90.0265Z" fill="white"/>
<path d="M59.9524 66.1128C59.7212 63.4707 58.1001 61.0593 55.4457 59.409C52.7913 57.7587 49.321 57.0047 45.7982 57.3129C42.2755 57.6211 38.9888 58.9663 36.6613 61.0524C34.3338 63.1386 33.156 65.7949 33.3872 68.4369" fill="#E6446D"/>
<path d="M37.9949 48.6114C37.8665 47.1442 36.8705 46.0329 35.7701 46.1292C34.6697 46.2254 33.8818 47.4928 34.0101 48.96C34.1385 50.4271 35.1346 51.5385 36.2349 51.4422C37.3353 51.3459 38.1233 50.0785 37.9949 48.6114Z" fill="#E6446D"/>
<path d="M53.934 47.2171C53.8056 45.7499 52.8096 44.6386 51.7092 44.7349C50.6088 44.8311 49.8209 46.0985 49.9492 47.5657C50.0776 49.0329 51.0737 50.1442 52.174 50.0479C53.2744 49.9516 54.0624 48.6842 53.934 47.2171Z" fill="#E6446D"/>
</g>
</g>
<defs>
<clipPath id="clip0_4178_132588">
<rect width="96" height="96" fill="white"/>
</clipPath>
</defs>
</svg>
