<svg width="96" height="96" viewBox="0 0 96 96" fill="none" xmlns="http://www.w3.org/2000/svg">
<mask id="mask0_4220_5075" style="mask-type:luminance" maskUnits="userSpaceOnUse" x="0" y="0" width="96" height="96">
<path d="M96 48C96 21.4903 74.5097 0 48 0C21.4903 0 0 21.4903 0 48C0 74.5097 21.4903 96 48 96C74.5097 96 96 74.5097 96 48Z" fill="white"/>
</mask>
<g mask="url(#mask0_4220_5075)">
<path d="M96 0H0V96H96V0Z" fill="#C7D5EE"/>
<path d="M95.5081 90.0265C107.832 63.5979 96.3978 32.183 69.9693 19.8592C43.5408 7.53535 12.1258 18.9695 -0.198001 45.398C-12.5218 71.8265 -1.08771 103.241 25.3408 115.565C51.7693 127.889 83.1843 116.455 95.5081 90.0265Z" fill="white"/>
<path d="M32.5156 62.4751C32.7467 65.1172 34.3678 67.5286 37.0223 69.1789C39.6767 70.8292 43.147 71.5832 46.6698 71.275C50.1925 70.9668 53.4792 69.6216 55.8067 67.5355C58.1342 65.4493 59.3119 62.793 59.0808 60.1509" fill="#0957DE"/>
<path d="M37.9948 48.6116C37.8665 47.1445 36.8704 46.0331 35.77 46.1294C34.6696 46.2257 33.8817 47.4931 34.01 48.9602C34.1384 50.4274 35.1345 51.5387 36.2348 51.4424C37.3352 51.3462 38.1232 50.0788 37.9948 48.6116Z" fill="#0957DE"/>
<path d="M53.9339 47.2171C53.8056 45.7499 52.8095 44.6386 51.7091 44.7349C50.6088 44.8311 49.8208 46.0985 49.9492 47.5657C50.0775 49.0329 51.0736 50.1442 52.174 50.0479C53.2743 49.9516 54.0623 48.6842 53.9339 47.2171Z" fill="#0957DE"/>
</g>
</svg>
