<svg width="29" height="9" viewBox="0 0 29 9" fill="none" xmlns="http://www.w3.org/2000/svg">
<path d="M3.73296 0.854039V2.3311H5.38514V0.854039H3.73296Z" fill="#071225"/>
<path d="M28.8977 1.5293V0.184136H25.5912V1.5293H27.2445H28.8977Z" fill="#071225"/>
<path fill-rule="evenodd" clip-rule="evenodd" d="M12.4895 4.05138C12.7739 4.05138 12.9764 3.99505 13.0971 3.88238C13.2263 3.76106 13.291 3.57473 13.291 3.32341V2.86843C13.291 2.03647 13.5193 1.37783 13.9761 0.892523C14.4414 0.407212 15.0705 0.164556 15.8634 0.164556C16.6562 0.164556 17.2637 0.398546 17.686 0.866524C18.1083 1.32584 18.3194 1.98881 18.3194 2.85543C18.3194 3.67873 18.0953 4.32003 17.6472 4.77934C17.2077 5.22999 16.5959 5.45531 15.8116 5.45531C15.3721 5.45531 15.0016 5.39465 14.7 5.27332C14.3983 5.14333 14.1786 4.96567 14.0407 4.74035C13.8856 4.99167 13.6831 5.17366 13.4332 5.28632C13.1919 5.39898 12.8773 5.45531 12.4895 5.45531L12.1752 5.45513H11.3986C10.7091 5.45513 10.1878 5.25148 9.83444 4.84416C9.48112 4.43685 9.30445 3.86054 9.30445 3.11524V0.104256H10.6359V3.02425C10.6359 3.37956 10.7005 3.63955 10.8298 3.80421C10.9677 3.96887 11.1831 4.0512 11.4761 4.0512H12.1752L12.4895 4.05138ZM16.6906 1.85448C16.8889 2.07114 16.988 2.40479 16.988 2.85543C16.988 3.26275 16.8889 3.56607 16.6906 3.76539C16.5011 3.95605 16.2081 4.05138 15.8116 4.05138C15.4238 4.05138 15.1308 3.95171 14.9326 3.75239C14.7344 3.5444 14.6353 3.24975 14.6353 2.86843C14.6353 2.40912 14.7301 2.07114 14.9197 1.85448C15.1179 1.62916 15.4152 1.51649 15.8116 1.51649C16.2081 1.51649 16.5011 1.62916 16.6906 1.85448Z" fill="#071225"/>
<path fill-rule="evenodd" clip-rule="evenodd" d="M28.5615 3.30331C28.5615 3.98794 28.3589 4.52525 27.9539 4.91523C27.5489 5.29655 27.006 5.48721 26.3252 5.48721H25.2275L25.035 5.48705L23.4465 5.48639C22.7769 6.53314 21.8483 7.47654 20.8339 8.25358L20.0517 7.17018C20.6678 6.67709 21.2756 6.10879 21.7913 5.48639C21.7654 5.48683 21.7393 5.48705 21.7129 5.48705C20.9287 5.48705 20.3168 5.26173 19.8773 4.81108C19.4292 4.35177 19.2052 3.71046 19.2052 2.88717C19.2052 2.02054 19.4163 1.35757 19.8386 0.898261C20.2608 0.430282 20.8684 0.196293 21.6612 0.196293C22.454 0.196293 23.0831 0.438949 23.5485 0.924259C24.0052 1.40957 24.2336 2.06821 24.2336 2.90017C24.2336 3.73213 24.0408 4.08311 24.0408 4.08311H25.035L25.2275 4.08327H26.3252C26.5923 4.08327 26.8078 4.01394 26.9715 3.87528C27.1352 3.72796 27.2171 3.5243 27.2171 3.26431V2.37709H28.5615V3.30331ZM20.8339 1.88622C20.6357 2.10287 20.5366 2.43652 20.5366 2.88717C20.5366 3.29448 20.6357 3.5978 20.8339 3.79713C21.0235 3.98779 21.3165 4.08311 21.7129 4.08311C22.1007 4.08311 22.3937 3.98345 22.5919 3.78413C22.7901 3.57614 22.8892 3.28148 22.8892 2.90017C22.8892 2.44086 22.7944 2.10287 22.6048 1.88622C22.4066 1.66089 22.1093 1.54823 21.7129 1.54823C21.3165 1.54823 21.0235 1.66089 20.8339 1.88622Z" fill="#071225"/>
<path d="M6.92535 0.0869141V1.73969C6.92535 3.08205 6.32326 4.17025 4.49479 4.17025C2.66632 4.17025 2.06424 3.08205 2.06424 1.73969V0.0869141H0.703125V1.73969C0.703125 3.83377 1.81738 5.53136 4.49479 5.53136C7.26943 5.53136 8.28646 3.83377 8.28646 1.73969V0.0869141H6.92535Z" fill="#071225"/>
</svg>
