<?xml version="1.0" ?><svg data-name="Your Icons" id="Your_Icons" viewBox="0 0 48 48" xmlns="http://www.w3.org/2000/svg"><title/><path d="M8,13h6V37.84a3,3,0,0,0,1.41,2.55C16.34,41,16.78,42,18.33,42c2.17,0,2.17-2,4.33-2s2.17,2,4.33,2,2.17-2,4.34-2,2.16,2,4.33,2c1.56,0,2-1,2.93-1.61A3,3,0,0,0,40,37.84V11a5,5,0,0,0-5-5H11a4.62,4.62,0,0,0-1,.1h0A5,5,0,0,0,6,11,2,2,0,0,0,8,13ZM35,8a3,3,0,0,1,3,3V37.84a1,1,0,0,1-.48.85,7.84,7.84,0,0,0-1.05.84c-.49.45-.54.47-.81.47s-.32,0-.81-.47a4.83,4.83,0,0,0-7,0c-.49.45-.54.47-.81.47s-.31,0-.8-.47a4.83,4.83,0,0,0-7,0c-.49.45-.54.47-.81.47s-.31,0-.8-.47a7.25,7.25,0,0,0-1.05-.84,1,1,0,0,1-.48-.85V11a7,7,0,0,0-.67-3Zm-24.78.1h0l.21,0A3.06,3.06,0,0,1,11,8a3,3,0,0,1,2.12.87,3.1,3.1,0,0,1,.82,1.53A5.8,5.8,0,0,1,14,11H8A3,3,0,0,1,10.22,8.1Z"/><path d="M29,14h6a1,1,0,0,0,0-2H29a1,1,0,0,0,0,2Z"/><path d="M29,18h6a1,1,0,0,0,0-2H29a1,1,0,0,0,0,2Z"/><path d="M29,22h6a1,1,0,0,0,0-2H29a1,1,0,0,0,0,2Z"/><path d="M19,27H35a1,1,0,0,0,0-2H19a1,1,0,0,0,0,2Z"/><path d="M19,31H35a1,1,0,0,0,0-2H19a1,1,0,0,0,0,2Z"/><path d="M20,22h4a2,2,0,0,0,2-2V14a2,2,0,0,0-2-2H20a2,2,0,0,0-2,2v6A2,2,0,0,0,20,22Zm0-8h4v6H20Z"/></svg>